<svg width="212" height="54" viewBox="0 0 212 54" fill="none" xmlns="http://www.w3.org/2000/svg">
<path d="M156.98 2.38266L157.151 4.76977L160.391 5.50864C165.222 6.58852 168.063 8.23676 172.269 12.4426C176.702 16.9327 178.749 21.4227 179.317 27.902C179.715 32.051 179.317 33.9266 176.475 41.7699C176.191 42.6793 176.305 42.6225 177.214 41.4858C177.896 40.6901 178.805 38.644 179.317 36.8252C180.34 33.1309 181.306 32.5057 184.603 33.5856C188.183 34.7223 196.911 41.8988 196.652 42.452C196.652 42.452 195.856 42.9067 194.492 41.6563C190.57 37.9619 183.409 34.1539 181.59 34.8928C179.374 35.7453 181.818 42.5088 184.887 43.9297C185.967 44.4981 186.509 44.5363 187.558 44.8959C188.508 45.2213 189.036 45.2369 190.002 45.6916C192.219 46.6578 200.801 49.4428 201.028 49.2723C201.369 48.9313 199.323 41.5426 198.357 39.4965C197.05 36.7684 193.583 33.3014 191.537 32.6194C190.741 32.392 188.07 32.1647 185.569 32.1647C181.988 32.1078 181.022 31.9373 181.022 31.2553C181.022 30.0049 184.318 29.5502 190.684 29.9481C194.094 30.1186 197.277 30.0049 198.641 29.6071C203.074 28.4135 207.28 23.6961 209.724 17.2737C211.088 13.6362 212.282 8.63461 211.941 8.23676C211.77 8.12309 209.781 8.52094 207.451 9.14613C205.12 9.82817 201.028 10.908 198.357 11.6469C189.206 14.0909 186.251 16.137 185.285 20.627C184.887 22.2752 184.716 24.3213 184.83 25.2875C184.944 26.7084 185.228 26.9358 186.365 26.8221C190.741 26.1969 201.881 19.945 204.893 16.4211C204.893 16.4211 204.041 16.4211 204.041 16.1938C204.041 15.9096 203.529 16.1938 202.904 16.7621C202.279 17.3305 201.767 17.6147 201.767 17.4442C201.767 17.2737 201.085 17.7284 200.289 18.4672C198.471 20.1723 195.742 21.5932 194.265 21.5932C193.696 21.5932 192.73 22.1047 192.162 22.6731C191.196 23.6393 187.729 25.0034 186.308 25.0034C185.512 25.0034 186.592 20.6838 187.842 18.6946C188.581 17.5578 190.116 16.1938 191.366 15.5686C193.81 14.375 193.81 14.375 196.822 14.2614C198.13 14.2045 198.868 13.9772 198.641 13.6362C198.414 13.2952 199.039 13.0678 200.062 13.0678C201.028 13.0678 202.392 12.67 203.131 12.2153C203.87 11.7038 205.234 11.2491 206.2 11.1922C207.11 11.1354 207.792 10.908 207.621 10.6239C207.508 10.3965 207.905 10.226 208.474 10.226C209.724 10.226 210.577 11.7038 209.724 12.2153C209.383 12.4426 209.156 12.8973 209.156 13.352C209.156 13.8067 208.872 14.8297 208.474 15.7391C208.076 16.5916 207.792 17.7284 207.735 18.183C207.735 18.6377 207.394 18.9787 207.053 18.9219C206.712 18.8651 206.541 19.2629 206.712 19.7745C206.826 20.3428 206.428 21.4227 205.802 22.2184C204.779 23.3551 204.552 23.4688 204.041 22.7299C203.756 22.2752 203.472 22.1616 203.472 22.5026C203.472 22.7868 203.756 23.3551 204.154 23.753C204.552 24.1508 204.666 24.4918 204.438 24.4918C204.211 24.5487 203.7 24.6055 203.359 24.6623C202.961 24.7192 202.676 25.117 202.79 25.5149C202.904 25.9696 202.62 26.1401 202.051 25.9696C201.597 25.7422 201.199 25.8559 201.199 26.1401C201.199 26.8789 197.845 28.5272 196.936 28.243C196.538 28.0725 195.913 28.243 195.572 28.584C195.06 29.0955 194.776 29.0955 194.435 28.5272C194.208 28.1293 193.526 27.9588 192.901 28.1293C192.332 28.3567 193.583 27.561 195.742 26.4811C197.959 25.3444 199.835 24.2077 200.005 23.9803C200.915 22.7299 204.268 20.8543 204.495 21.4795C204.666 21.9911 204.893 21.9342 205.518 21.3659C206.598 20.286 206.541 19.5471 205.461 20.4565C204.211 21.4795 204.438 20.286 205.746 18.5809C206.484 17.6715 206.655 16.9895 206.314 16.7621C206.03 16.5916 204.893 16.4211 204.893 16.4211C204.893 16.4211 204.097 19.1493 202.165 20.6838C196.993 24.7192 190.457 27.8451 185.285 28.6977C184.205 28.8682 182.841 29.1524 182.329 29.3229C181.42 29.6071 181.306 29.2092 181.306 26.8221C181.306 22.9573 179.544 16.6485 177.384 12.8973C174.259 7.38422 168.291 2.83735 161.47 0.791256C157.265 -0.515968 156.753 -0.345463 156.98 2.38266ZM166.358 4.37192C168.007 5.16762 169.996 6.58852 170.792 7.44106C171.587 8.35043 172.497 9.0893 172.781 9.0893C173.122 9.0893 173.349 9.48715 173.349 9.99867C173.349 10.7375 173.065 10.6807 171.644 9.65766C170.678 8.97562 170.109 8.17992 170.337 7.83891C170.564 7.44106 170.337 7.32738 169.768 7.55473C169.2 7.78207 168.745 7.49789 168.518 6.75903C168.177 5.79282 167.211 5.39496 165.79 5.62231C165.563 5.62231 164.426 5.16762 163.289 4.54242C162.096 3.91723 160.675 3.40571 160.163 3.40571C159.595 3.40571 159.14 3.17836 159.14 2.89418C159.14 1.98481 163.176 2.83735 166.358 4.37192ZM194.776 36.5979C195.97 37.8483 196.14 38.2461 195.515 38.8145C195.117 39.2123 194.947 39.2123 195.117 38.8713C195.288 38.5303 194.208 37.5641 192.617 36.6547C191.082 35.7453 189.832 34.836 189.832 34.6655C189.832 33.1309 192.276 34.1539 194.776 36.5979Z" fill="white"/>
<path d="M166.358 4.37192C168.007 5.16762 169.996 6.58852 170.792 7.44106C171.587 8.35043 172.497 9.0893 172.781 9.0893C173.122 9.0893 173.349 9.48715 173.349 9.99867C173.349 10.7375 173.065 10.6807 171.644 9.65766C170.678 8.97562 170.109 8.17992 170.337 7.83891C170.564 7.44106 170.337 7.32738 169.768 7.55473C169.2 7.78207 168.745 7.49789 168.518 6.75903C168.177 5.79282 167.211 5.39496 165.79 5.62231C165.563 5.62231 164.426 5.16762 163.289 4.54242C162.096 3.91723 160.675 3.40571 160.163 3.40571C159.595 3.40571 159.14 3.17836 159.14 2.89418C159.14 1.98481 163.176 2.83735 166.358 4.37192Z" fill="white"/>
<path d="M194.776 36.5979C195.97 37.8483 196.14 38.2461 195.515 38.8145C195.117 39.2123 194.947 39.2123 195.117 38.8713C195.288 38.5303 194.208 37.5641 192.617 36.6547C191.082 35.7453 189.832 34.836 189.832 34.6655C189.832 33.1309 192.276 34.1539 194.776 36.5979Z" fill="white"/>
<path d="M204.893 16.4211C204.893 16.4211 204.041 16.4211 204.041 16.1938C204.041 15.9096 203.529 16.1938 202.904 16.7621C202.279 17.3305 201.767 17.6147 201.767 17.4442C201.767 17.2737 201.085 17.7284 200.289 18.4672C198.471 20.1723 195.742 21.5932 194.265 21.5932C193.696 21.5932 192.73 22.1047 192.162 22.6731C191.196 23.6393 187.729 25.0034 186.308 25.0034C185.512 25.0034 186.592 20.6838 187.842 18.6946C188.581 17.5578 190.116 16.1938 191.366 15.5686C193.81 14.375 193.81 14.375 196.822 14.2614C198.13 14.2045 198.868 13.9772 198.641 13.6362C198.414 13.2952 199.039 13.0678 200.062 13.0678C201.028 13.0678 202.392 12.67 203.131 12.2153C203.87 11.7038 205.234 11.2491 206.2 11.1922C207.11 11.1354 207.792 10.908 207.621 10.6239C207.508 10.3965 207.905 10.226 208.474 10.226C209.724 10.226 210.577 11.7038 209.724 12.2153C209.383 12.4426 209.156 12.8973 209.156 13.352C209.156 13.8067 208.872 14.8297 208.474 15.7391C208.076 16.5916 207.792 17.7284 207.735 18.183C207.735 18.6377 207.394 18.9787 207.053 18.9219C206.712 18.8651 206.541 19.2629 206.712 19.7745C206.826 20.3428 206.428 21.4227 205.802 22.2184C204.779 23.3551 204.552 23.4688 204.041 22.7299C203.756 22.2752 203.472 22.1616 203.472 22.5026C203.472 22.7868 203.756 23.3551 204.154 23.753C204.552 24.1508 204.666 24.4918 204.438 24.4918C204.211 24.5487 203.7 24.6055 203.359 24.6623C202.961 24.7192 202.676 25.117 202.79 25.5149C202.904 25.9696 202.62 26.1401 202.051 25.9696C201.597 25.7422 201.199 25.8559 201.199 26.1401C201.199 26.8789 197.845 28.5272 196.936 28.243C196.538 28.0725 195.913 28.243 195.572 28.584C195.06 29.0955 194.776 29.0955 194.435 28.5272C194.208 28.1293 193.526 27.9588 192.901 28.1293C192.332 28.3567 193.583 27.561 195.742 26.4811C197.959 25.3444 199.835 24.2077 200.005 23.9803C200.915 22.7299 204.268 20.8543 204.495 21.4795C204.666 21.9911 204.893 21.9342 205.518 21.3659C206.598 20.286 206.541 19.5471 205.461 20.4565C204.211 21.4795 204.438 20.286 205.746 18.5809C206.484 17.6715 206.655 16.9895 206.314 16.7621C206.03 16.5916 204.893 16.4211 204.893 16.4211Z" fill="white"/>
<path d="M164.256 4.20133C164.256 4.315 164.654 4.59918 165.165 4.76969C165.62 4.94019 165.847 4.88336 165.677 4.54234C165.336 3.97398 164.256 3.74664 164.256 4.20133Z" fill="white"/>
<path d="M146.854 16.2427C146.854 18.3615 145.137 20.0791 143.018 20.0791C140.899 20.0791 139.182 18.3615 139.182 16.2427C139.182 14.1239 140.899 12.4062 143.018 12.4062C145.137 12.4062 146.854 14.1239 146.854 16.2427Z" fill="white"/>
<path d="M8.58222 13.707C0.142159 14.5596 0 19.4901 0 30.4594V40.1784L3.75117 40.0647L7.50234 39.951L7.44551 30.8573C7.33183 21.934 7.88361 21.6499 7.88361 21.6499H10.2873C10.5715 22.1045 10.7988 26.4809 10.7988 31.4256V40.3489L14.4932 40.292L18.1875 40.1784V30.2889C18.1875 16.421 16.7667 14.3464 8.58222 13.707Z" fill="white"/>
<path d="M68.9988 23.5254C69.2262 32.6192 69.6809 35.12 71.4996 37.1661C72.6932 38.4733 76.558 40.292 78.2631 40.3489C79.4566 40.3489 79.5703 40.1215 79.5135 36.6545C79.4566 33.5286 79.2861 32.9602 78.4336 32.9602C77.1832 32.9602 76.3307 31.9372 76.0465 30.1184C75.876 28.868 76.0465 28.6975 77.5811 28.868L79.2861 29.0385L79.1156 25.3442C78.8883 21.8204 78.8314 21.593 77.5242 21.593C76.217 21.593 76.1602 21.4225 76.1602 17.8987V14.2044L72.4658 14.2612L68.7715 14.318L68.9988 23.5254ZM74.1709 17.2735C74.3982 17.8987 74.5687 19.2628 74.6256 20.2858C74.6824 21.934 75.3645 22.7297 76.558 22.6729C77.1832 22.6161 77.6379 24.4348 77.4105 26.0831C77.2969 26.9924 76.6717 27.845 75.9896 28.1292C74.1141 28.9817 74.1141 31.312 75.9328 33.1876C77.5811 34.779 78.3199 36.9387 77.24 36.9387C76.899 36.9387 76.7285 37.3366 76.9559 37.7913C77.3537 38.8711 76.5012 38.8711 75.5918 37.7913C75.1939 37.3366 74.7393 37.0524 74.5119 37.1661C73.773 37.6208 71.7838 35.5178 71.1586 33.6991C70.7039 32.335 70.7039 31.8235 71.2154 31.653C71.727 31.4825 71.6701 31.1415 71.0449 30.4026C70.2492 29.4364 70.3061 29.3795 71.3291 29.7206C72.409 30.1184 72.409 30.0616 71.4996 29.3227C70.3629 28.4702 70.1355 27.2766 71.1018 27.2766C71.5564 27.2766 71.5564 27.0493 71.2154 26.5377C70.6471 25.8557 70.3061 17.2167 70.7607 16.421C71.3859 15.5116 73.8299 16.0799 74.1709 17.2735Z" fill="white"/>
<path d="M74.1709 17.2735C74.3982 17.8987 74.5687 19.2628 74.6256 20.2858C74.6824 21.934 75.3645 22.7297 76.558 22.6729C77.1832 22.6161 77.6379 24.4348 77.4105 26.0831C77.2969 26.9924 76.6717 27.845 75.9896 28.1292C74.1141 28.9817 74.1141 31.312 75.9328 33.1876C77.5811 34.779 78.3199 36.9387 77.24 36.9387C76.899 36.9387 76.7285 37.3366 76.9559 37.7913C77.3537 38.8711 76.5012 38.8711 75.5918 37.7913C75.1939 37.3366 74.7393 37.0524 74.5119 37.1661C73.773 37.6208 71.7838 35.5178 71.1586 33.6991C70.7039 32.335 70.7039 31.8235 71.2154 31.653C71.727 31.4825 71.6701 31.1415 71.0449 30.4026C70.2492 29.4364 70.3061 29.3795 71.3291 29.7206C72.409 30.1184 72.409 30.0616 71.4996 29.3227C70.3629 28.4702 70.1355 27.2766 71.1018 27.2766C71.5564 27.2766 71.5564 27.0493 71.2154 26.5377C70.6471 25.8557 70.3061 17.2167 70.7607 16.421C71.3859 15.5116 73.8299 16.0799 74.1709 17.2735Z" fill="white"/>
<path d="M87.4139 14.9433C81.1615 17.8542 82.526 20.1154 82.4123 31.8804L82.3555 40.1216L86.334 40.1785H90.3125L90.1988 36.9957C90.0852 34.2675 90.2557 33.8128 91.1082 33.8697C91.9039 33.9834 92.2165 32.9603 92.2165 30.1185C92.2165 27.5609 90.7672 27.3478 90.0851 27.3478C89.9715 26.3247 89.9146 24.3781 90.1988 23.2982C90.5967 21.7068 90.9945 21.3089 92.1312 21.3089H93.4953L93.6658 30.6869L93.7795 40.0648H97.5307H101.282L101.054 29.8343C100.77 18.6377 102.827 18.2161 97.8148 15.1707C94.3428 13.0609 91.0971 13.2286 87.4139 14.9433Z" fill="white"/>
<path d="M26.7697 21.991C25.7467 22.5025 24.0984 23.9803 23.2459 25.1738C21.8818 27.0494 21.5977 28.0156 21.5977 30.6869C21.5977 36.3705 25.6898 40.4059 31.3734 40.349C32.7375 40.2922 34.6699 39.8375 35.6361 39.326L37.5117 38.3598L35.3519 35.859C33.8742 34.1539 33.0217 33.5287 32.7375 33.9834C32.0555 35.0633 30.2367 34.7791 29.3273 33.415C27.6791 31.0279 28.418 27.3336 30.6914 26.5947C31.9986 26.14 34.1016 27.1062 34.1016 28.1293C34.1016 28.8682 33.7037 28.9818 32.1123 28.6408C30.1799 28.2998 30.123 28.3566 30.123 30.0617V31.8236H35.5225C40.8082 31.8236 40.9219 31.8236 40.9219 30.4596C40.9219 27.2199 37.8527 22.673 34.8404 21.5363C32.7375 20.7406 28.9295 20.968 26.7697 21.991Z" fill="white"/>
<path d="M27.5522 37.5546C27.5317 37.5801 27.532 37.5827 27.5522 37.5546V37.5546Z" fill="white"/>
<path d="M31.4734 36.4185C31.3946 36.3803 31.3155 36.35 31.2368 36.3295C31.1732 36.3128 31.1098 36.3025 31.0469 36.2994C31.1241 36.3177 31.2098 36.3419 31.3024 36.3707L31.4734 36.4185Z" fill="white"/>
<path d="M31.5231 36.4457C31.621 36.5073 31.6367 36.575 31.5888 36.6458C32.1658 37.0702 32.4084 36.7749 31.5231 36.4457C31.5085 36.4365 31.492 36.4274 31.4736 36.4185L31.3026 36.3707C31.3828 36.3957 31.4562 36.4208 31.5231 36.4457Z" fill="white"/>
<path d="M47.1176 22.3319C44.56 24.037 43.8779 26.4241 43.7074 33.8696L43.5938 40.0079L47.1176 40.1784L50.5846 40.3489V35.1768C50.5846 29.2659 51.1529 27.504 52.858 28.4133C53.9379 28.9817 53.9947 28.8112 53.9947 25.0032V21.0247H51.4939C49.9025 21.0247 48.368 21.4794 47.1176 22.3319ZM52.2896 23.5254C52.2896 23.9801 52.0055 24.5485 51.7213 24.719C51.3803 24.9463 51.2666 25.3442 51.4939 25.6284C51.8918 26.3672 50.6414 27.9586 49.9594 27.504C49.6752 27.3335 49.391 27.6176 49.391 28.0723C49.3342 28.5838 49.2205 29.209 49.1637 29.5501C49.1068 29.8342 48.9932 32.0508 48.9363 34.4379L48.8795 38.7006L47.0607 38.5301L45.1852 38.3596L45.3557 33.2444C45.5262 27.3335 46.0945 24.719 47.2312 24.719C47.6859 24.719 48.0838 24.378 48.0838 23.9801C48.1406 23.6391 48.1975 23.2413 48.2543 23.1276C48.2543 23.0139 49.2205 22.9002 50.3004 22.8434C51.7213 22.7297 52.2896 22.9003 52.2896 23.5254Z" fill="white"/>
<path d="M52.2896 23.5254C52.2896 23.9801 52.0055 24.5485 51.7213 24.719C51.3803 24.9463 51.2666 25.3442 51.4939 25.6284C51.8918 26.3672 50.6414 27.9586 49.9594 27.504C49.6752 27.3335 49.391 27.6176 49.391 28.0723C49.3342 28.5838 49.2205 29.209 49.1637 29.5501C49.1068 29.8342 48.9932 32.0508 48.9363 34.4379L48.8795 38.7006L47.0607 38.5301L45.1852 38.3596L45.3557 33.2444C45.5262 27.3335 46.0945 24.719 47.2312 24.719C47.6859 24.719 48.0838 24.378 48.0838 23.9801C48.1406 23.6391 48.1975 23.2413 48.2543 23.1276C48.2543 23.0139 49.2205 22.9002 50.3004 22.8434C51.7213 22.7297 52.2896 22.9003 52.2896 23.5254Z" fill="white"/>
<path d="M48.8789 25.2306C48.8789 25.3442 49.2768 25.7421 49.7314 26.14C50.243 26.5378 50.584 26.5946 50.584 26.2536C50.584 25.9694 50.1861 25.5716 49.7314 25.3442C49.2768 25.1737 48.8789 25.1169 48.8789 25.2306Z" fill="white"/>
<path d="M108.726 22.6162C107.021 23.6961 105.941 24.9465 105.089 26.9357C103.668 30.3459 103.895 32.7898 105.998 35.8022C107.703 38.3029 109.863 39.3828 112.591 39.0986C114.524 38.9281 114.524 38.9281 114.694 35.5748C114.865 32.733 114.751 32.2783 113.955 32.5625C113.444 32.7898 112.591 32.4488 112.023 31.8805C109.806 29.6639 112.477 26.3674 115.035 28.0156C116.172 28.8113 116.285 29.3797 116.456 34.2107C116.57 39.2691 116.513 39.6102 115.092 41.1447C113.785 42.5656 113.33 42.7361 111.454 42.3951L109.295 42.0541L109.465 45.0096C109.579 47.7377 109.749 48.0219 111.227 48.4197C113.671 49.1018 117.82 47.9082 119.866 45.9189C122.14 43.6455 123.333 39.6102 123.333 33.8129C123.333 26.7652 122.196 24.2076 118.104 22.1047C115.035 20.5133 111.625 20.7406 108.726 22.6162ZM117.479 23.0709C118.559 23.6393 119.866 24.6623 120.321 25.4012C121.173 26.6516 122.253 34.3813 121.742 34.9496C121.628 35.0633 121.457 36.541 121.401 38.1893C121.287 41.8268 119.525 45.6348 118.275 45.1801C117.763 45.0096 117.593 45.0096 117.82 45.2369C118.275 45.6916 115.888 47.0557 114.41 47.2262C112.08 47.4535 111.284 47.1693 111.625 46.26C111.795 45.8053 111.739 45.5779 111.398 45.7484C111.057 45.9189 110.829 45.5779 110.829 44.8959C110.829 44.0434 111.17 43.7592 111.852 43.816C113.33 44.0434 116.399 42.2246 116.854 40.8037C117.365 39.2123 117.593 28.6408 117.138 27.9588C116.967 27.6746 116.001 27.1063 115.092 26.6516C113.5 25.8559 113.273 25.8559 112.193 26.9357C109.692 29.4934 109.579 29.8912 110.545 31.7668C111 32.733 111.795 33.5287 112.193 33.5287C113.216 33.5287 113.728 35.0064 113.33 36.7115C113.046 37.7346 112.705 38.0188 112.023 37.7914C111.511 37.5641 110.431 37.2799 109.636 37.1094C107.817 36.7684 105.998 33.5856 105.771 30.5164C105.543 27.6178 108.044 23.6393 109.692 24.1508C110.602 24.435 110.772 24.3213 110.431 23.5256C110.147 22.7299 110.261 22.6162 111.057 22.9004C111.625 23.1277 111.909 23.0709 111.682 22.7299C111.113 21.8205 115.319 22.0479 117.479 23.0709Z" fill="white"/>
<path d="M117.479 23.0709C118.559 23.6393 119.866 24.6623 120.321 25.4012C121.173 26.6516 122.253 34.3813 121.742 34.9496C121.628 35.0633 121.457 36.541 121.401 38.1893C121.287 41.8268 119.525 45.6348 118.275 45.1801C117.763 45.0096 117.593 45.0096 117.82 45.2369C118.275 45.6916 115.888 47.0557 114.41 47.2262C112.08 47.4535 111.284 47.1693 111.625 46.26C111.795 45.8053 111.739 45.5779 111.398 45.7484C111.057 45.9189 110.829 45.5779 110.829 44.8959C110.829 44.0434 111.17 43.7592 111.852 43.816C113.33 44.0434 116.399 42.2246 116.854 40.8037C117.365 39.2123 117.593 28.6408 117.138 27.9588C116.967 27.6746 116.001 27.1063 115.092 26.6516C113.5 25.8559 113.273 25.8559 112.193 26.9357C109.692 29.4934 109.579 29.8912 110.545 31.7668C111 32.733 111.795 33.5287 112.193 33.5287C113.216 33.5287 113.728 35.0064 113.33 36.7115C113.046 37.7346 112.705 38.0188 112.023 37.7914C111.511 37.5641 110.431 37.2799 109.636 37.1094C107.817 36.7684 105.998 33.5856 105.771 30.5164C105.543 27.6178 108.044 23.6393 109.692 24.1508C110.602 24.435 110.772 24.3213 110.431 23.5256C110.147 22.7299 110.261 22.6162 111.057 22.9004C111.625 23.1277 111.909 23.0709 111.682 22.7299C111.113 21.8205 115.319 22.0479 117.479 23.0709Z" fill="white"/>
<path d="M107.705 29.6069C107.478 29.9479 107.421 30.289 107.591 30.4595C107.705 30.63 107.989 30.3458 108.16 29.8343C108.558 28.8681 108.217 28.6975 107.705 29.6069Z" fill="white"/>
<path d="M108.499 34.4948C107.76 35.4042 107.817 35.4611 108.727 34.7222C109.636 33.9833 109.92 33.5286 109.465 33.5286C109.352 33.5286 108.897 33.9833 108.499 34.4948Z" fill="white"/>
<path d="M130.672 22.2752C128.115 23.9803 127.433 26.3674 127.262 33.8129L127.148 39.9512L130.672 40.1217L134.139 40.2922V35.1202C134.139 29.2092 134.708 27.4473 136.413 28.3567C137.493 28.9251 137.549 28.7545 137.549 24.9465V20.968H135.049C133.457 20.968 131.923 21.4227 130.672 22.2752ZM135.844 23.4688C135.844 23.9235 135.56 24.4919 135.276 24.6624C134.935 24.8897 134.821 25.2876 135.049 25.5717C135.446 26.3106 134.196 27.902 133.514 27.4473C133.23 27.2768 132.946 27.561 132.946 28.0157C132.889 28.5272 132.775 29.1524 132.718 29.4934C132.662 29.7776 132.548 31.9942 132.491 34.3813L132.434 38.644L130.615 38.4735L128.74 38.303L128.91 33.1877C129.081 27.2768 129.649 24.6624 130.786 24.6624C131.241 24.6624 131.638 24.3213 131.638 23.9235C131.695 23.5825 131.752 23.1846 131.809 23.071C131.809 22.9573 132.775 22.8436 133.855 22.7868C135.276 22.6731 135.844 22.8436 135.844 23.4688Z" fill="white"/>
<path d="M135.844 23.4688C135.844 23.9235 135.56 24.4919 135.276 24.6624C134.935 24.8897 134.821 25.2876 135.049 25.5717C135.446 26.3106 134.196 27.902 133.514 27.4473C133.23 27.2768 132.946 27.561 132.946 28.0157C132.889 28.5272 132.775 29.1524 132.718 29.4934C132.662 29.7776 132.548 31.9942 132.491 34.3813L132.434 38.644L130.615 38.4735L128.74 38.303L128.91 33.1877C129.081 27.2768 129.649 24.6624 130.786 24.6624C131.241 24.6624 131.638 24.3213 131.638 23.9235C131.695 23.5825 131.752 23.1846 131.809 23.071C131.809 22.9573 132.775 22.8436 133.855 22.7868C135.276 22.6731 135.844 22.8436 135.844 23.4688Z" fill="white"/>
<path d="M130.21 28.7544C130.21 29.3796 130.381 29.5501 130.551 29.0954C130.722 28.6976 130.665 28.186 130.495 28.0155C130.324 27.7882 130.154 28.1292 130.21 28.7544Z" fill="white"/>
<path d="M139.759 21.3091C139.759 21.3091 139.589 25.5149 139.475 30.687L139.305 40.0649H142.942H146.637V30.687V21.3091H143.226C141.351 21.3091 139.816 21.3091 139.759 21.3091ZM144.59 23.4689C145.557 24.4351 145.67 37.621 144.761 38.1894C144.363 38.4167 143.397 38.644 142.544 38.644H140.953V30.687V22.73H142.431C143.226 22.73 144.193 23.071 144.59 23.4689Z" fill="white"/>
<path d="M144.59 23.4689C145.557 24.4351 145.67 37.621 144.761 38.1894C144.363 38.4167 143.397 38.644 142.544 38.644H140.953V30.687V22.73H142.431C143.226 22.73 144.193 23.071 144.59 23.4689Z" fill="white"/>
<path d="M154.025 22.8435C150.786 25.2874 150.047 26.7652 150.047 30.7437C150.047 35.8589 153.287 39.6669 158.231 40.1784C163.46 40.8036 168.803 36.7683 168.803 32.2783C168.803 31.0279 168.632 30.971 165.393 31.1415C162.721 31.312 161.982 31.5394 161.698 32.3919C160.732 35.4042 156.867 33.6992 156.867 30.3458C156.867 28.7544 157.095 28.3566 158.402 28.0724C159.197 27.8451 160.334 27.9587 160.903 28.3566C161.926 28.9818 168.803 29.2659 168.803 28.6976C168.803 27.3335 166.813 24.3212 165.108 22.9572C163.517 21.7636 162.21 21.3089 159.766 21.1384C156.81 20.9111 156.356 21.0816 154.025 22.8435ZM162.892 23.0708C164.37 23.8097 166.529 26.481 166.529 27.6177C166.529 28.0156 161.641 27.3335 160.164 26.7652C158.913 26.3105 158.402 26.4242 157.208 27.3335C156.412 27.9587 155.73 28.8681 155.73 29.3228C155.73 29.7775 155.503 30.1185 155.162 30.1185C154.878 30.1185 154.594 30.4027 154.594 30.7437C154.594 31.0847 154.935 31.2552 155.333 31.0847C155.901 30.8574 156.071 31.2552 156.015 32.3351C155.958 33.1876 156.185 33.9265 156.526 33.9833C156.867 34.0402 158.061 34.2675 159.197 34.438C160.618 34.6654 161.471 34.4949 162.153 33.8697C163.119 32.8466 165.222 32.6761 166.529 33.5286C167.098 33.8697 167.154 34.097 166.7 34.097C166.302 34.097 165.961 34.5517 165.961 35.12C165.961 35.6884 165.449 36.5409 164.824 37.1093C164.199 37.6208 163.687 37.905 163.687 37.7345C163.687 37.5072 163.346 37.6777 162.892 38.0187C161.585 39.0986 156.583 39.1554 155.219 38.0187C154.594 37.5072 154.025 36.7683 154.025 36.3704C154.025 36.0294 153.798 35.8589 153.571 36.0294C152.548 36.6546 150.672 30.971 151.07 28.5271C151.184 27.8451 151.525 27.3904 151.809 27.5609C152.093 27.7882 152.15 27.4472 151.922 26.9357C151.638 26.1968 151.752 26.0263 152.491 26.3105C153.116 26.5378 153.287 26.4242 153.116 25.9126C152.775 25.0033 154.31 23.6392 155.162 24.1507C155.503 24.3781 155.674 24.2076 155.617 23.7529C155.503 23.355 155.901 23.0708 156.469 23.0708C156.981 23.1277 157.436 22.9572 157.436 22.673C157.436 21.8204 160.789 22.1046 162.892 23.0708Z" fill="white"/>
<path d="M162.892 23.0708C164.37 23.8097 166.529 26.481 166.529 27.6177C166.529 28.0156 161.641 27.3335 160.164 26.7652C158.913 26.3105 158.402 26.4242 157.208 27.3335C156.412 27.9587 155.73 28.8681 155.73 29.3228C155.73 29.7775 155.503 30.1185 155.162 30.1185C154.878 30.1185 154.594 30.4027 154.594 30.7437C154.594 31.0847 154.935 31.2552 155.333 31.0847C155.901 30.8574 156.071 31.2552 156.015 32.3351C155.958 33.1876 156.185 33.9265 156.526 33.9833C156.867 34.0402 158.061 34.2675 159.197 34.438C160.618 34.6654 161.471 34.4949 162.153 33.8697C163.119 32.8466 165.222 32.6761 166.529 33.5286C167.098 33.8697 167.154 34.097 166.7 34.097C166.302 34.097 165.961 34.5517 165.961 35.12C165.961 35.6884 165.449 36.5409 164.824 37.1093C164.199 37.6208 163.687 37.905 163.687 37.7345C163.687 37.5072 163.346 37.6777 162.892 38.0187C161.585 39.0986 156.583 39.1554 155.219 38.0187C154.594 37.5072 154.025 36.7683 154.025 36.3704C154.025 36.0294 153.798 35.8589 153.571 36.0294C152.548 36.6546 150.672 30.971 151.07 28.5271C151.184 27.8451 151.525 27.3904 151.809 27.5609C152.093 27.7882 152.15 27.4472 151.922 26.9357C151.638 26.1968 151.752 26.0263 152.491 26.3105C153.116 26.5378 153.287 26.4242 153.116 25.9126C152.775 25.0033 154.31 23.6392 155.162 24.1507C155.503 24.3781 155.674 24.2076 155.617 23.7529C155.503 23.355 155.901 23.0708 156.469 23.0708C156.981 23.1277 157.436 22.9572 157.436 22.673C157.436 21.8204 160.789 22.1046 162.892 23.0708Z" fill="white"/>
<path d="M60.9281 22.73C58.882 23.9804 58.0863 25.6286 57.9158 28.8114C57.7453 31.8237 57.0064 32.9605 55.415 32.9605C54.051 32.9605 53.9941 33.0741 53.9941 36.939V40.9175L56.4381 40.5765C61.2123 39.8376 64.1109 36.939 64.793 32.1079C65.0203 30.4597 65.4182 29.664 66.3844 29.2661C67.4643 28.7546 67.6348 28.2999 67.6348 25.1739V21.5933H65.2477C63.8268 21.5933 62.008 22.048 60.9281 22.73ZM65.7023 25.1171C65.475 26.8222 65.5318 27.3337 65.9297 26.7085C66.2707 26.197 66.498 26.1401 66.498 26.538C66.498 26.879 65.9865 27.561 65.4182 27.9589C64.1109 28.8683 63.3152 30.687 62.8605 33.5856C62.4059 36.0864 59.7914 38.7577 57.4043 39.0419C55.7561 39.2124 55.6992 39.0987 55.6992 37.0526C55.6992 35.3476 56.0971 34.495 57.4043 33.3583C58.541 32.3353 59.1094 31.2554 59.1094 30.2323C59.1094 29.323 59.2799 28.4136 59.5072 28.1862C59.7346 27.9589 59.9619 27.4474 60.0187 27.1064C60.0187 26.7085 60.1324 25.9696 60.1324 25.3444C60.1893 24.6624 60.5303 24.4351 61.1555 24.6624C61.7238 24.8898 61.8943 24.7761 61.6102 24.3214C61.326 23.8667 61.4965 23.8099 62.1217 24.0372C62.69 24.2077 63.0879 24.1509 63.0879 23.8667C63.0879 23.5825 63.5994 23.4689 64.2246 23.5825C64.8498 23.6962 65.3613 23.5825 65.3613 23.2415C65.3613 22.9573 65.5318 22.73 65.7023 22.73C65.9297 22.73 65.9297 23.8099 65.7023 25.1171Z" fill="white"/>
<path d="M65.7023 25.1171C65.475 26.8222 65.5318 27.3337 65.9297 26.7085C66.2707 26.197 66.498 26.1401 66.498 26.538C66.498 26.879 65.9865 27.561 65.4182 27.9589C64.1109 28.8683 63.3152 30.687 62.8605 33.5856C62.4059 36.0864 59.7914 38.7577 57.4043 39.0419C55.7561 39.2124 55.6992 39.0987 55.6992 37.0526C55.6992 35.3476 56.0971 34.495 57.4043 33.3583C58.541 32.3353 59.1094 31.2554 59.1094 30.2323C59.1094 29.323 59.2799 28.4136 59.5072 28.1862C59.7346 27.9589 59.9619 27.4474 60.0187 27.1064C60.0187 26.7085 60.1324 25.9696 60.1324 25.3444C60.1893 24.6624 60.5303 24.4351 61.1555 24.6624C61.7238 24.8898 61.8943 24.7761 61.6102 24.3214C61.326 23.8667 61.4965 23.8099 62.1217 24.0372C62.69 24.2077 63.0879 24.1509 63.0879 23.8667C63.0879 23.5825 63.5994 23.4689 64.2246 23.5825C64.8498 23.6962 65.3613 23.5825 65.3613 23.2415C65.3613 22.9573 65.5318 22.73 65.7023 22.73C65.9297 22.73 65.9297 23.8099 65.7023 25.1171Z" fill="white"/>
<path d="M87.6406 24.4348C87.6406 25.2305 87.7543 25.5147 87.9248 25.1169C88.0385 24.7759 88.0385 24.0938 87.9248 23.696C87.7543 23.355 87.6406 23.6391 87.6406 24.4348Z" fill="white"/>
<path d="M176.645 28.6976C175.906 38.7007 168.916 46.6009 158.571 49.0449C156.014 49.6132 155.787 49.8406 155.616 51.6025L155.389 53.5349L158.23 53.1939C162.095 52.6824 167.722 49.8406 170.734 46.7714C175.736 41.7699 178.521 33.6423 177.441 26.9925L176.986 24.1507L176.645 28.6976Z" fill="white"/>
<path d="M202.478 35.8439C203.274 35.5597 205.405 35.8021 205.973 38.1892C206.258 39.4396 206.144 39.6101 205.178 39.3827C204.553 39.2122 204.212 38.8712 204.382 38.587C204.553 38.3028 204.496 38.0755 204.212 38.1323C203.075 38.3028 202.279 38.0187 202.62 37.5071C202.791 37.1661 202.393 36.9388 201.654 36.8819C200.46 36.8819 201.512 36.2417 202.478 35.8439Z" fill="white"/>
<path d="M202.478 35.8439C202.478 35.8439 202.45 34.6085 201.483 33.8128L199.778 32.4487L201.654 32.3919C205.235 32.3919 206.996 34.3812 207.963 39.4964C208.474 42.3382 207.963 43.1907 206.428 41.9403C205.917 41.4857 204.382 40.6331 203.018 40.0648C200.347 38.928 198.357 36.5978 198.357 34.7222C198.357 33.2445 198.642 33.2445 200.801 34.779C202.336 35.9157 202.478 35.8439 202.478 35.8439C201.512 36.2417 200.46 36.8819 201.654 36.8819C202.393 36.9388 202.791 37.1661 202.62 37.5071C202.279 38.0187 203.075 38.3028 204.212 38.1323C204.496 38.0755 204.553 38.3028 204.382 38.587C204.212 38.8712 204.553 39.2122 205.178 39.3827C206.144 39.6101 206.258 39.4396 205.973 38.1892C205.405 35.8021 203.274 35.5597 202.478 35.8439Z" fill="white"/>
</svg>
