<svg width="82" height="82" viewBox="0 0 82 82" fill="none" xmlns="http://www.w3.org/2000/svg">
<g filter="url(#filter0_d_90_4858)">
<g clip-path="url(#clip0_90_4858)">
<path d="M5.56886 36.5568C5.56714 42.7743 7.1917 48.8451 10.2808 54.1961L5.27344 72.4787L23.9834 67.5729C29.1583 70.39 34.9565 71.8661 40.8485 71.8666H40.864C60.3148 71.8666 76.1482 56.0389 76.1565 36.5846C76.1603 27.1577 72.4924 18.2932 65.8284 11.624C59.1655 4.95539 50.3042 1.28091 40.8626 1.27661C21.4095 1.27661 5.57718 17.1034 5.56915 36.5568" fill="url(#paint0_linear_90_4858)"/>
<path d="M4.3069 36.5457C4.30489 42.9868 5.98767 49.2748 9.18688 54.8174L4 73.7553L23.3808 68.6737C28.7209 71.5852 34.7332 73.1203 40.8511 73.1226H40.8669C61.0156 73.1226 77.4178 56.7256 77.4264 36.5749C77.4298 26.8092 73.63 17.6261 66.7279 10.718C59.825 3.81071 50.6467 0.0040155 40.8669 0C20.7148 0 4.31493 16.3947 4.3069 36.5457ZM15.8489 53.8628L15.1252 52.7141C12.0832 47.8771 10.4776 42.2876 10.4799 36.548C10.4862 19.799 24.1171 6.1724 40.8784 6.1724C48.9954 6.17584 56.6238 9.34006 62.3613 15.0811C68.0986 20.8227 71.2557 28.455 71.2537 36.5726C71.2462 53.3216 57.615 66.9499 40.8669 66.9499H40.8549C35.4015 66.9471 30.0532 65.4825 25.3889 62.715L24.2789 62.0567L12.7779 65.0721L15.8489 53.8628Z" fill="url(#paint1_linear_90_4858)"/>
<path d="M31.7323 21.268C31.0479 19.747 30.3277 19.7163 29.6769 19.6896C29.144 19.6666 28.5348 19.6684 27.9261 19.6684C27.3169 19.6684 26.3271 19.8975 25.4905 20.8111C24.6529 21.7254 22.293 23.9351 22.293 28.4293C22.293 32.9235 25.5665 37.2672 26.0228 37.8772C26.4797 38.4862 32.3423 48.0041 41.6273 51.6656C49.344 54.7085 50.9143 54.1033 52.5891 53.9507C54.2641 53.7987 57.9939 51.7416 58.7549 49.6085C59.5164 47.4757 59.5164 45.6475 59.2881 45.2655C59.0598 44.8849 58.4506 44.6563 57.537 44.1996C56.6235 43.743 52.1322 41.5328 51.2949 41.2279C50.4574 40.9233 49.8485 40.7713 49.2393 41.6859C48.6301 42.5992 46.8808 44.6563 46.3476 45.2655C45.8149 45.8761 45.2817 45.9521 44.3685 45.4952C43.4544 45.0369 40.5125 44.0734 37.0221 40.9617C34.3065 38.5404 32.4731 35.5503 31.9402 34.6356C31.4073 33.7223 31.8831 33.2273 32.3412 32.7721C32.7516 32.3628 33.255 31.7054 33.7122 31.1722C34.1677 30.6387 34.3197 30.2581 34.6243 29.6489C34.9292 29.0391 34.7766 28.5056 34.5486 28.0487C34.3197 27.5918 32.5445 23.0741 31.7323 21.268Z" fill="white"/>
</g>
</g>
<defs>
<filter id="filter0_d_90_4858" x="0" y="0" width="81.4258" height="82" filterUnits="userSpaceOnUse" color-interpolation-filters="sRGB">
<feFlood flood-opacity="0" result="BackgroundImageFix"/>
<feColorMatrix in="SourceAlpha" type="matrix" values="0 0 0 0 0 0 0 0 0 0 0 0 0 0 0 0 0 0 127 0" result="hardAlpha"/>
<feOffset dy="4"/>
<feGaussianBlur stdDeviation="2"/>
<feComposite in2="hardAlpha" operator="out"/>
<feColorMatrix type="matrix" values="0 0 0 0 0 0 0 0 0 0 0 0 0 0 0 0 0 0 0.25 0"/>
<feBlend mode="normal" in2="BackgroundImageFix" result="effect1_dropShadow_90_4858"/>
<feBlend mode="normal" in="SourceGraphic" in2="effect1_dropShadow_90_4858" result="shape"/>
</filter>
<linearGradient id="paint0_linear_90_4858" x1="3549.43" y1="7121.48" x2="3549.43" y2="1.27661" gradientUnits="userSpaceOnUse">
<stop stop-color="#1FAF38"/>
<stop offset="1" stop-color="#60D669"/>
</linearGradient>
<linearGradient id="paint1_linear_90_4858" x1="3675.32" y1="7375.53" x2="3675.32" y2="0" gradientUnits="userSpaceOnUse">
<stop stop-color="#F9F9F9"/>
<stop offset="1" stop-color="white"/>
</linearGradient>
<clipPath id="clip0_90_4858">
<rect width="73.4264" height="74" fill="white" transform="translate(4)"/>
</clipPath>
</defs>
</svg>
